<svg xmlns="http://www.w3.org/2000/svg" enable-background="new 0 0 512 512" viewBox="0 0 512 512" id="safe-box">
  <path fill="#05CDFF" d="M506.499,267c0,39.75-9.46,77.28-26.26,110.47c-18.91,37.36-47.1,69.23-81.56,92.55
		c-39.14,26.5-86.35,41.98-137.18,41.98s-98.04-15.48-137.18-41.98c-34.46-23.32-62.65-55.19-81.56-92.55
		c-16.8-33.19-26.26-70.72-26.26-110.47s9.46-77.28,26.26-110.47c14.95-29.54,35.71-55.64,60.77-76.81
		C146.179,43.71,201.299,22,261.499,22s115.32,21.71,157.97,57.72c25.06,21.17,45.82,47.27,60.77,76.81
		C497.039,189.72,506.499,227.25,506.499,267z"></path>
  <path fill="#69E3FF" d="M506.499,267c0,4.63-0.13,9.22-0.39,13.79c-40.53,29.69-90.52,47.21-144.61,47.21
			c-135.31,0-245-109.69-245-245c0-4.63,0.13-9.22,0.39-13.79C157.419,39.52,207.409,22,261.499,22
			C396.809,22,506.499,131.69,506.499,267z"></path>
  <path fill="#535B6D" d="M480.239,105.23v272.24c-18.91,37.36-47.1,69.23-81.56,92.55h-274.36c-34.46-23.32-62.65-55.19-81.56-92.55
		V105.23c0-14.09,11.42-25.51,25.51-25.51h386.46C468.819,79.72,480.239,91.14,480.239,105.23z"></path>
  <path fill="#36B990" d="M434.199,47.9l-26.63,79.14h-121.69l39.01-115.93c2.87-8.53,12.12-13.13,20.66-10.25l78.39,26.38
			C432.479,30.11,437.069,39.36,434.199,47.9z"></path>
  <path fill="#77D9A5" d="M414.049,63.67l-21.33,63.37h-92l30.69-91.19c1.16-3.46,4.92-5.33,8.38-4.16l6.56,2.21
			c3.46,1.16,7.22-0.7,8.39-4.17l1.73-5.15c1.17-3.47,4.92-5.33,8.39-4.17l31.88,10.73c3.47,1.17,5.33,4.92,4.17,8.39l-1.74,5.16
			c-1.17,3.46,0.7,7.22,4.17,8.38l6.55,2.21C413.359,56.45,415.219,60.2,414.049,63.67z"></path>
  <path fill="#36B990" d="M372.226 55.765c-5.127-.689-7.897-6.219-5.38-10.738 1.407-2.525 4.302-3.976 7.167-3.591 5.127.689 7.897 6.219 5.38 10.738C377.986 54.699 375.091 56.15 372.226 55.765zM380.519 119.72c-.89 2.66-2.13 5.11-3.64 7.32h-48.99c-5.09-7.43-6.75-17.07-3.66-26.26 5.23-15.54 22.07-23.9 37.61-18.67C377.389 87.34 385.749 104.18 380.519 119.72zM94.979 127.37c-8.66 1.61-15.22 9.22-15.22 18.35v121.15l-68.64-59.57c-6.8-5.9-7.53-16.2-1.63-23.01l54.22-62.46c5.9-6.81 16.2-7.54 23.01-1.63L94.979 127.37z"></path>
  <path fill="#77D9A5" d="M79.759,150.71v97.54l-43.28-37.56c-2.76-2.4-3.06-6.58-0.66-9.34l4.53-5.23c2.4-2.76,2.1-6.94-0.66-9.34
			l-4.11-3.56c-2.76-2.4-3.05-6.58-0.66-9.35l22.05-25.4c2.4-2.76,6.58-3.06,9.34-0.66l4.11,3.56
			C73.179,153.77,77.369,153.47,79.759,150.71z"></path>
  <path fill="#36B990" d="M55.571,171.428c2.587-4.48,8.755-4.939,11.977-0.891c1.8,2.261,2.041,5.491,0.595,7.994
				c-2.587,4.48-8.755,4.939-11.977,0.891C54.366,177.161,54.125,173.931,55.571,171.428z"></path>
  <path fill="#2C3343" d="M424.556,438.032H98.442c-10.318,0-18.683-8.364-18.683-18.683V145.724
		c0-10.318,8.364-18.683,18.683-18.683h326.114c10.318,0,18.683,8.364,18.683,18.683V419.35
		C443.239,429.668,434.874,438.032,424.556,438.032z"></path>
  <path fill="#C3D2D7" d="M444.833 228.667h-.667c-6.075 0-11-4.925-11-11V203c0-6.075 4.925-11 11-11h.667c6.075 0 11 4.925 11 11v14.667C455.833 223.742 450.908 228.667 444.833 228.667zM150.607 333.608c-7.272-7.272-19.061-7.272-26.333 0-7.271 7.271-7.272 19.061 0 26.333 5.04 5.04 12.25 6.58 18.622 4.633l21.151 21.151c3.409 3.409 8.935 3.409 12.343 0 3.409-3.409 3.409-8.935 0-12.343L155.24 352.23C157.187 345.858 155.647 338.649 150.607 333.608z"></path>
  <circle cx="261.499" cy="282.537" r="84" fill="#C3D2D7"></circle>
  <circle cx="261.499" cy="282.537" r="51.484" fill="#474E5E"></circle>
  <circle cx="261.499" cy="282.537" r="14.565" fill="#FFF"></circle>
  <g>
    <path fill="#C3D2D7" d="M261.749 260.953c-2.762 0-5-2.239-5-5v-10.25c0-2.761 2.238-5 5-5s5 2.239 5 5v10.25C266.749 258.715 264.511 260.953 261.749 260.953zM276.938 267.452c-1.953-1.953-1.952-5.119 0-7.071l7.248-7.248c1.952-1.952 5.118-1.953 7.071 0 1.953 1.953 1.952 5.119 0 7.071l-7.248 7.248C282.056 269.404 278.891 269.405 276.938 267.452zM283.083 282.787c0-2.762 2.239-5 5-5h10.25c2.761 0 5 2.238 5 5s-2.239 5-5 5h-10.25C285.321 287.787 283.083 285.548 283.083 282.787zM276.584 297.975c1.953-1.953 5.119-1.952 7.071 0l7.248 7.248c1.952 1.952 1.953 5.118 0 7.071-1.953 1.953-5.119 1.952-7.071 0l-7.248-7.248C274.632 303.094 274.631 299.928 276.584 297.975zM261.249 304.12c2.762 0 5 2.239 5 5v10.25c0 2.761-2.238 5-5 5s-5-2.239-5-5v-10.25C256.249 306.359 258.488 304.12 261.249 304.12zM246.061 297.622c1.953 1.953 1.952 5.119 0 7.071l-7.248 7.248c-1.952 1.952-5.118 1.953-7.071 0-1.953-1.953-1.952-5.119 0-7.071l7.248-7.248C240.942 295.669 244.108 295.669 246.061 297.622zM239.916 282.287c0 2.762-2.239 5-5 5h-10.25c-2.761 0-5-2.238-5-5s2.239-5 5-5h10.25C237.677 277.287 239.916 279.525 239.916 282.287zM246.414 267.098c-1.953 1.953-5.119 1.952-7.071 0l-7.248-7.248c-1.952-1.952-1.953-5.118 0-7.071 1.953-1.953 5.119-1.952 7.071 0l7.248 7.248C248.367 261.98 248.367 265.145 246.414 267.098z"></path>
  </g>
  <path fill="#EE5351" d="M269.328,208.254l-6.381,11.051c-0.644,1.115-2.253,1.115-2.897,0l-6.381-11.051
		c-0.644-1.115,0.161-2.509,1.448-2.509h12.761C269.167,205.746,269.972,207.139,269.328,208.254z"></path>
  <g>
    <path fill="#FA870A" d="M505.869,284.52c-0.04,0.64-0.09,1.28-0.14,1.92v0.01c-0.81,10.39-2.28,20.59-4.35,30.57
				c-0.97,4.72-2.09,9.39-3.34,14h-100.59c-0.35,0-0.7-0.01-1.04-0.04c-7.95-0.53-14.23-7.14-14.23-15.23V299.8
				c0-7.15,4.9-13.15,11.52-14.82c1.2-0.3,2.46-0.46,3.75-0.46H505.869z"></path>
    <path fill="#F29C09" d="M505.869,284.52c-0.04,0.64-0.09,1.28-0.14,1.92v0.01c-0.81,10.39-2.28,20.59-4.35,30.57h-92.43
				c-8.43,0-15.27-6.83-15.27-15.27V285.8c0-0.27,0.01-0.55,0.02-0.82c1.2-0.3,2.46-0.46,3.75-0.46H505.869z"></path>
    <polygon fill="#FFE269" points="453.086 284.521 443.086 317.021 420.766 317.021 430.766 284.521"></polygon>
    <path fill="#FFE269" d="M505.869,284.52c-0.04,0.64-0.09,1.28-0.14,1.92v0.01l-9.4,30.57h-33.78l10-32.5H505.869z"></path>
    <g>
      <path fill="#FA870A" d="M498.039,331.03c-3.01,11.15-6.78,21.99-11.27,32.45c-2.03,4.74-4.21,9.4-6.53,13.98
				c0,0.01,0,0.02-0.01,0.02h-102.78c-8.43,0-15.27-6.83-15.27-15.27v-15.95c0-7.15,4.9-13.15,11.52-14.82
				c1.2-0.3,2.46-0.46,3.75-0.46h119.45c0.35,0,0.7,0.01,1.05,0.04C497.979,331.02,498.009,331.02,498.039,331.03z"></path>
      <path fill="#F29C09" d="M498.039,331.03c-3.01,11.15-6.78,21.99-11.27,32.45h-97.82c-8.43,0-15.27-6.83-15.27-15.27v-15.95
				c0-0.27,0.01-0.55,0.02-0.82c1.2-0.3,2.46-0.46,3.75-0.46h119.45c0.35,0,0.7,0.01,1.05,0.04
				C497.979,331.02,498.009,331.02,498.039,331.03z"></path>
      <polygon fill="#FFE269" points="433.086 330.979 423.086 363.479 400.766 363.479 410.766 330.979"></polygon>
      <polygon fill="#FFE269" points="486.316 330.979 476.326 363.479 442.546 363.479 452.546 330.979"></polygon>
    </g>
    <g>
      <path fill="#FA870A" d="M480.239,377.46c0,0.01,0,0.02-0.01,0.02c-4.77,9.44-10.14,18.53-16.06,27.21
				c-1.2,1.77-2.43,3.53-3.69,5.27c-3.44,4.79-7.05,9.45-10.83,13.96c-0.01,0.02-0.02,0.03-0.03,0.04h-52.17
				c-0.35,0-0.7-0.01-1.04-0.04c-7.95-0.53-14.23-7.14-14.23-15.23v-15.95c0-7.15,4.9-13.15,11.52-14.82c1-0.25,2.04-0.4,3.11-0.44
				c0.21-0.02,0.43-0.02,0.64-0.02H480.239z"></path>
      <path fill="#F29C09" d="M480.239,377.46c0,0.01,0,0.02-0.01,0.02c-4.77,9.44-10.14,18.53-16.06,27.21
				c-1.2,1.77-2.43,3.53-3.69,5.27h-51.53c-8.43,0-15.27-6.83-15.27-15.27v-15.95c0-0.27,0.01-0.55,0.02-0.82
				c1-0.25,2.04-0.4,3.11-0.44c0.21-0.02,0.43-0.02,0.64-0.02H480.239z"></path>
      <polygon fill="#FFE269" points="453.086 377.458 443.086 409.958 420.766 409.958 430.766 377.458"></polygon>
      <path fill="#FFE269" d="M480.239,377.46c0,0.01,0,0.02-0.01,0.02c-4.77,9.44-10.14,18.53-16.06,27.21l8.37-27.21l0.01-0.02
				H480.239z"></path>
    </g>
    <g>
      <path fill="#FA870A" d="M449.649,423.92c-0.01,0.02-0.02,0.03-0.03,0.04c-7.49,8.97-15.61,17.4-24.3,25.21
				c-2.75,2.48-5.56,4.9-8.43,7.25c-6.03,4.96-12.3,9.63-18.8,14h-20.64c-8.43,0-15.27-6.83-15.27-15.27V439.2
				c0-7.15,4.9-13.15,11.52-14.82c1.2-0.3,2.46-0.46,3.75-0.46H449.649z"></path>
      <path fill="#F29C09" d="M449.649,423.92c-0.01,0.02-0.02,0.03-0.03,0.04c-7.49,8.97-15.61,17.4-24.3,25.21
				c-2.75,2.48-5.56,4.9-8.43,7.25h-27.94c-8.43,0-15.27-6.83-15.27-15.27V425.2c0-0.27,0.01-0.55,0.02-0.82
				c1.2-0.3,2.46-0.46,3.75-0.46H449.649z"></path>
      <path fill="#FFE269" d="M433.089,423.92l-0.01,0.04l-7.76,25.21c-2.75,2.48-5.56,4.9-8.43,7.25h-16.12l9.99-32.46l0.01-0.04
				H433.089z"></path>
    </g>
  </g>
</svg>
